# xmcd
#
# Track frame offsets:
#  150
#  22805
#  42342
#  61450
#  75677
#  92227
#  107170
#  126672
#  147685
#  163962
#  180142
#  192975
#  204147
#
# Disc length: 2959 seconds
#
# Revision: 3
# Processed by: cddbd v1.5.1PL2 Copyright (c) Steve Scherf et al.
# Submitted via: Collectorz.com_Music_Collector 6.11
#
DISCID=b60b8d0d
DTITLE=Mr Bo and The Voodooers - Big Blues
DYEAR=2001
DGENRE=Electric Blues
TTITLE0=What Have I Done Wrong
TTITLE1=A Good Fool Is Hard To Find
TTITLE2=My Best Friend Is Cheatin'
TTITLE3=Every Dog Got His Day
TTITLE4=You Don't Love Me
TTITLE5=Santa's Messing With The Kid
TTITLE6=Part Time Love
TTITLE7=I Believe To My Soul
TTITLE8=Santa Claus Wants Some Lovin'
TTITLE9=Rocking Daddy
TTITLE10=Mr Pawnbroker
TTITLE11=I Tried
TTITLE12=Big Blues
EXTD=
EXTT0=
EXTT1=
EXTT2=
EXTT3=
EXTT4=
EXTT5=
EXTT6=
EXTT7=
EXTT8=
EXTT9=
EXTT10=
EXTT11=
EXTT12=
PLAYORDER=
